<mxfile host="app.diagrams.net" modified="2023-12-01T12:12:51.973Z" agent="Mozilla/5.0 (Windows NT 10.0; Win64; x64) AppleWebKit/537.36 (KHTML, like Gecko) Chrome/119.0.0.0 Safari/537.36" version="22.1.5" etag="i0xRbijdRVB8uZJEnMF4" type="google">
  <diagram name="Page-1" id="wLtPh9MVbV5f7E2ly3yx">
    <mxGraphModel>
      <root>
        <mxCell id="0" />
        <mxCell id="1" parent="0" />
      </root>
    </mxGraphModel>
  </diagram>
</mxfile>
